<mxfile host="app.diagrams.net" agent="Mozilla/5.0 (Windows NT 10.0; Win64; x64) AppleWebKit/537.36 (KHTML, like Gecko) Chrome/129.0.0.0 Safari/537.36" version="24.7.17">
  <diagram name="Page-1" id="-H_mtQnk-PTXWXPvYvuk">
    <mxGraphModel dx="2765" dy="1464" grid="1" gridSize="10" guides="1" tooltips="1" connect="1" arrows="1" fold="1" page="1" pageScale="1" pageWidth="1169" pageHeight="827" math="0" shadow="0">
      <root>
        <mxCell id="0" />
        <mxCell id="1" parent="0" />
        <mxCell id="eUgnzbrfR_kHX7VscJpC-52" value="&lt;h1 style=&quot;margin-top: 0px; font-size: 29px;&quot;&gt;&lt;font style=&quot;font-size: 29px;&quot; face=&quot;Verdana&quot;&gt;Потоки данных&lt;/font&gt;&lt;/h1&gt;&lt;p style=&quot;font-size: 29px;&quot;&gt;&lt;font style=&quot;font-size: 29px;&quot; face=&quot;L6tmhl1reHOPJtDBh7W_&quot;&gt;1. &lt;i&gt;&lt;b&gt;pymongo-api&amp;nbsp; -&amp;gt; mongos:&lt;/b&gt;&lt;/i&gt;&lt;/font&gt;&lt;/p&gt;&lt;p style=&quot;line-height: 40%; font-size: 29px;&quot;&gt;&lt;font style=&quot;font-size: 29px;&quot; face=&quot;L6tmhl1reHOPJtDBh7W_&quot;&gt;&amp;nbsp; &amp;nbsp;- Запросы на чтение и запись данных&lt;/font&gt;&lt;/p&gt;&lt;p style=&quot;line-height: 40%; font-size: 29px;&quot;&gt;&lt;font style=&quot;font-size: 29px;&quot; face=&quot;L6tmhl1reHOPJtDBh7W_&quot;&gt;&amp;nbsp; &amp;nbsp;- Команды администрирования&lt;/font&gt;&lt;/p&gt;&lt;p style=&quot;font-size: 29px;&quot;&gt;&lt;font style=&quot;font-size: 29px;&quot; face=&quot;L6tmhl1reHOPJtDBh7W_&quot;&gt;2. &lt;b&gt;&lt;i&gt;mongos -&amp;gt; Шарды (shard0, shard1):&lt;/i&gt;&lt;/b&gt;&lt;/font&gt;&lt;/p&gt;&lt;p style=&quot;line-height: 40%; font-size: 29px;&quot;&gt;&lt;font style=&quot;font-size: 29px;&quot; face=&quot;L6tmhl1reHOPJtDBh7W_&quot;&gt;&amp;nbsp; &amp;nbsp;- Перенаправление запросов на чтение и запись&lt;/font&gt;&lt;/p&gt;&lt;p style=&quot;line-height: 40%; font-size: 29px;&quot;&gt;&lt;font style=&quot;font-size: 29px;&quot; face=&quot;L6tmhl1reHOPJtDBh7W_&quot;&gt;&amp;nbsp; &amp;nbsp;- Команды балансировки данных&lt;/font&gt;&lt;/p&gt;&lt;p style=&quot;font-size: 29px;&quot;&gt;&lt;font style=&quot;font-size: 29px;&quot; face=&quot;L6tmhl1reHOPJtDBh7W_&quot;&gt;&lt;span style=&quot;background-color: initial;&quot;&gt;3. &lt;i&gt;&lt;b&gt;mongos -&amp;gt; Конфигурационные серверы:&lt;/b&gt;&lt;/i&gt;&lt;/span&gt;&lt;br&gt;&lt;/font&gt;&lt;/p&gt;&lt;p style=&quot;line-height: 40%; font-size: 29px;&quot;&gt;&lt;font style=&quot;font-size: 29px;&quot; face=&quot;L6tmhl1reHOPJtDBh7W_&quot;&gt;&amp;nbsp; &amp;nbsp;- Запросы метаданных о распределении данных&lt;/font&gt;&lt;/p&gt;&lt;p style=&quot;line-height: 40%; font-size: 29px;&quot;&gt;&lt;font style=&quot;font-size: 29px;&quot; face=&quot;L6tmhl1reHOPJtDBh7W_&quot;&gt;&amp;nbsp; &amp;nbsp;- Обновления конфигурации кластера&lt;/font&gt;&lt;/p&gt;&lt;p style=&quot;font-size: 29px;&quot;&gt;&lt;font style=&quot;font-size: 29px;&quot; face=&quot;L6tmhl1reHOPJtDBh7W_&quot;&gt;4. &lt;i&gt;&lt;b&gt;Шарды -&amp;gt; Конфигурационные серверы:&lt;/b&gt;&lt;/i&gt;&lt;/font&gt;&lt;/p&gt;&lt;p style=&quot;line-height: 40%; font-size: 29px;&quot;&gt;&lt;font style=&quot;font-size: 29px;&quot; face=&quot;L6tmhl1reHOPJtDBh7W_&quot;&gt;&amp;nbsp; &amp;nbsp;- Отчеты о состоянии и статистике шардов&lt;/font&gt;&lt;/p&gt;" style="text;html=1;whiteSpace=wrap;overflow=hidden;rounded=0;fillColor=#f5f5f5;strokeColor=none;fontColor=#333333;" vertex="1" parent="1">
          <mxGeometry x="1408" y="3.25" width="930" height="670" as="geometry" />
        </mxCell>
        <mxCell id="eUgnzbrfR_kHX7VscJpC-53" value="" style="group" vertex="1" connectable="0" parent="1">
          <mxGeometry x="20" y="150" width="1370" height="1050" as="geometry" />
        </mxCell>
        <mxCell id="eUgnzbrfR_kHX7VscJpC-44" style="edgeStyle=orthogonalEdgeStyle;rounded=0;orthogonalLoop=1;jettySize=auto;html=1;exitX=0.5;exitY=1;exitDx=0;exitDy=0;entryX=0.5;entryY=1;entryDx=0;entryDy=0;" edge="1" parent="eUgnzbrfR_kHX7VscJpC-53" source="eUgnzbrfR_kHX7VscJpC-20" target="eUgnzbrfR_kHX7VscJpC-11">
          <mxGeometry relative="1" as="geometry">
            <Array as="points">
              <mxPoint x="194.0343347639485" y="1050" />
              <mxPoint x="1146.5665236051502" y="1050" />
            </Array>
          </mxGeometry>
        </mxCell>
        <mxCell id="eUgnzbrfR_kHX7VscJpC-20" value="" style="rounded=0;whiteSpace=wrap;html=1;fillColor=#f5f5f5;fontColor=#333333;strokeColor=#666666;" vertex="1" parent="eUgnzbrfR_kHX7VscJpC-53">
          <mxGeometry y="34.61538461538461" width="388.068669527897" height="392.30769230769226" as="geometry" />
        </mxCell>
        <mxCell id="eUgnzbrfR_kHX7VscJpC-29" style="edgeStyle=orthogonalEdgeStyle;rounded=0;orthogonalLoop=1;jettySize=auto;html=1;exitX=0.5;exitY=1;exitDx=0;exitDy=0;exitPerimeter=0;entryX=0.75;entryY=0;entryDx=0;entryDy=0;startArrow=none;startFill=0;" edge="1" parent="eUgnzbrfR_kHX7VscJpC-53" source="eUgnzbrfR_kHX7VscJpC-3" target="eUgnzbrfR_kHX7VscJpC-14">
          <mxGeometry relative="1" as="geometry">
            <mxPoint x="699.6995708154507" y="553.8461538461538" as="targetPoint" />
          </mxGeometry>
        </mxCell>
        <mxCell id="eUgnzbrfR_kHX7VscJpC-30" style="edgeStyle=orthogonalEdgeStyle;rounded=0;orthogonalLoop=1;jettySize=auto;html=1;exitX=0.5;exitY=1;exitDx=0;exitDy=0;exitPerimeter=0;entryX=0.25;entryY=0;entryDx=0;entryDy=0;" edge="1" parent="eUgnzbrfR_kHX7VscJpC-53" source="eUgnzbrfR_kHX7VscJpC-3" target="eUgnzbrfR_kHX7VscJpC-11">
          <mxGeometry relative="1" as="geometry" />
        </mxCell>
        <mxCell id="eUgnzbrfR_kHX7VscJpC-39" style="edgeStyle=orthogonalEdgeStyle;rounded=0;orthogonalLoop=1;jettySize=auto;html=1;exitX=0;exitY=0.5;exitDx=0;exitDy=0;exitPerimeter=0;entryX=1;entryY=0.5;entryDx=0;entryDy=0;startArrow=classic;startFill=1;" edge="1" parent="eUgnzbrfR_kHX7VscJpC-53" source="eUgnzbrfR_kHX7VscJpC-3" target="eUgnzbrfR_kHX7VscJpC-20">
          <mxGeometry relative="1" as="geometry" />
        </mxCell>
        <mxCell id="eUgnzbrfR_kHX7VscJpC-3" value="MongoS" style="shape=cylinder3;whiteSpace=wrap;html=1;boundedLbl=1;backgroundOutline=1;size=15;fillColor=#d5e8d4;strokeColor=#82b366;" vertex="1" parent="eUgnzbrfR_kHX7VscJpC-53">
          <mxGeometry x="786.7210300429184" y="186.9230769230769" width="176.39484978540773" height="88.26923076923076" as="geometry" />
        </mxCell>
        <mxCell id="eUgnzbrfR_kHX7VscJpC-12" value="" style="group;" vertex="1" connectable="0" parent="eUgnzbrfR_kHX7VscJpC-53">
          <mxGeometry x="923.1330472103004" y="519.2307692307692" width="446.86695278969955" height="346.15384615384613" as="geometry" />
        </mxCell>
        <mxCell id="eUgnzbrfR_kHX7VscJpC-11" value="" style="rounded=1;whiteSpace=wrap;html=1;fillColor=#f5f5f5;fontColor=#333333;strokeColor=#666666;" vertex="1" parent="eUgnzbrfR_kHX7VscJpC-12">
          <mxGeometry y="34.61538461538461" width="446.86695278969955" height="311.5384615384615" as="geometry" />
        </mxCell>
        <mxCell id="eUgnzbrfR_kHX7VscJpC-5" value="Mongod" style="shape=cylinder3;whiteSpace=wrap;html=1;boundedLbl=1;backgroundOutline=1;size=15;fillColor=#e1d5e7;strokeColor=#9673a6;" vertex="1" parent="eUgnzbrfR_kHX7VscJpC-12">
          <mxGeometry x="135.23605150214593" y="46.153846153846146" width="176.39484978540773" height="88.26923076923076" as="geometry" />
        </mxCell>
        <mxCell id="eUgnzbrfR_kHX7VscJpC-10" value="SHARD1" style="text;html=1;align=center;verticalAlign=middle;whiteSpace=wrap;rounded=0;" vertex="1" parent="eUgnzbrfR_kHX7VscJpC-12">
          <mxGeometry x="188.15450643776825" width="70.55793991416309" height="34.61538461538461" as="geometry" />
        </mxCell>
        <mxCell id="eUgnzbrfR_kHX7VscJpC-35" value="" style="dashed=0;outlineConnect=0;html=1;align=center;labelPosition=center;verticalLabelPosition=bottom;verticalAlign=top;shape=mxgraph.weblogos.mongodb" vertex="1" parent="eUgnzbrfR_kHX7VscJpC-12">
          <mxGeometry x="174.98369098712442" y="88.84615384615384" width="13.170815450643776" height="30.576923076923073" as="geometry" />
        </mxCell>
        <mxCell id="eUgnzbrfR_kHX7VscJpC-17" value="pymongo-api" style="rounded=1;whiteSpace=wrap;html=1;fillColor=#dae8fc;strokeColor=#6c8ebf;" vertex="1" parent="eUgnzbrfR_kHX7VscJpC-53">
          <mxGeometry x="804.3605150214593" y="25.384615384615383" width="141.11587982832617" height="69.23076923076923" as="geometry" />
        </mxCell>
        <mxCell id="eUgnzbrfR_kHX7VscJpC-18" style="edgeStyle=orthogonalEdgeStyle;rounded=0;orthogonalLoop=1;jettySize=auto;html=1;entryX=0.5;entryY=0;entryDx=0;entryDy=0;entryPerimeter=0;" edge="1" parent="eUgnzbrfR_kHX7VscJpC-53" source="eUgnzbrfR_kHX7VscJpC-17" target="eUgnzbrfR_kHX7VscJpC-3">
          <mxGeometry relative="1" as="geometry" />
        </mxCell>
        <mxCell id="eUgnzbrfR_kHX7VscJpC-19" value="Mongod" style="shape=cylinder3;whiteSpace=wrap;html=1;boundedLbl=1;backgroundOutline=1;size=15;fillColor=#e1d5e7;strokeColor=#9673a6;" vertex="1" parent="eUgnzbrfR_kHX7VscJpC-53">
          <mxGeometry x="105.83690987124463" y="65.1923076923077" width="176.39484978540773" height="88.26923076923076" as="geometry" />
        </mxCell>
        <mxCell id="eUgnzbrfR_kHX7VscJpC-21" value="Конфигурационные серверы" style="text;html=1;align=center;verticalAlign=middle;whiteSpace=wrap;rounded=0;fontSize=18;" vertex="1" parent="eUgnzbrfR_kHX7VscJpC-53">
          <mxGeometry width="388.068669527897" height="34.61538461538461" as="geometry" />
        </mxCell>
        <mxCell id="eUgnzbrfR_kHX7VscJpC-22" value="Mongod" style="shape=cylinder3;whiteSpace=wrap;html=1;boundedLbl=1;backgroundOutline=1;size=15;fillColor=#e1d5e7;strokeColor=#9673a6;" vertex="1" parent="eUgnzbrfR_kHX7VscJpC-53">
          <mxGeometry x="105.83690987124463" y="173.07692307692307" width="176.39484978540773" height="88.26923076923076" as="geometry" />
        </mxCell>
        <mxCell id="eUgnzbrfR_kHX7VscJpC-23" value="Mongod" style="shape=cylinder3;whiteSpace=wrap;html=1;boundedLbl=1;backgroundOutline=1;size=15;fillColor=#e1d5e7;strokeColor=#9673a6;" vertex="1" parent="eUgnzbrfR_kHX7VscJpC-53">
          <mxGeometry x="105.83690987124463" y="276.9230769230769" width="176.39484978540773" height="88.26923076923076" as="geometry" />
        </mxCell>
        <mxCell id="eUgnzbrfR_kHX7VscJpC-24" value="CFG_0" style="text;html=1;align=center;verticalAlign=middle;whiteSpace=wrap;rounded=0;fontSize=16;" vertex="1" parent="eUgnzbrfR_kHX7VscJpC-53">
          <mxGeometry x="23.51931330472103" y="92.01923076923076" width="70.55793991416309" height="34.61538461538461" as="geometry" />
        </mxCell>
        <mxCell id="eUgnzbrfR_kHX7VscJpC-25" value="CFG_1" style="text;html=1;align=center;verticalAlign=middle;whiteSpace=wrap;rounded=0;fontSize=16;" vertex="1" parent="eUgnzbrfR_kHX7VscJpC-53">
          <mxGeometry x="23.51931330472103" y="199.90384615384613" width="70.55793991416309" height="34.61538461538461" as="geometry" />
        </mxCell>
        <mxCell id="eUgnzbrfR_kHX7VscJpC-26" value="CFG_2" style="text;html=1;align=center;verticalAlign=middle;whiteSpace=wrap;rounded=0;fontSize=16;" vertex="1" parent="eUgnzbrfR_kHX7VscJpC-53">
          <mxGeometry x="23.51931330472103" y="303.75" width="70.55793991416309" height="34.61538461538461" as="geometry" />
        </mxCell>
        <mxCell id="eUgnzbrfR_kHX7VscJpC-2" value="" style="dashed=0;outlineConnect=0;html=1;align=center;labelPosition=center;verticalLabelPosition=bottom;verticalAlign=top;shape=mxgraph.weblogos.mongodb" vertex="1" parent="eUgnzbrfR_kHX7VscJpC-53">
          <mxGeometry x="152.8755364806867" y="323.07692307692304" width="13.170815450643776" height="30.576923076923073" as="geometry" />
        </mxCell>
        <mxCell id="eUgnzbrfR_kHX7VscJpC-31" value="" style="dashed=0;outlineConnect=0;html=1;align=center;labelPosition=center;verticalLabelPosition=bottom;verticalAlign=top;shape=mxgraph.weblogos.mongodb" vertex="1" parent="eUgnzbrfR_kHX7VscJpC-53">
          <mxGeometry x="152.8755364806867" y="215.4807692307692" width="13.170815450643776" height="30.576923076923073" as="geometry" />
        </mxCell>
        <mxCell id="eUgnzbrfR_kHX7VscJpC-32" value="" style="dashed=0;outlineConnect=0;html=1;align=center;labelPosition=center;verticalLabelPosition=bottom;verticalAlign=top;shape=mxgraph.weblogos.mongodb" vertex="1" parent="eUgnzbrfR_kHX7VscJpC-53">
          <mxGeometry x="152.8755364806867" y="108.46153846153845" width="13.170815450643776" height="30.576923076923073" as="geometry" />
        </mxCell>
        <mxCell id="eUgnzbrfR_kHX7VscJpC-33" value="" style="dashed=0;outlineConnect=0;html=1;align=center;labelPosition=center;verticalLabelPosition=bottom;verticalAlign=top;shape=mxgraph.weblogos.mongodb" vertex="1" parent="eUgnzbrfR_kHX7VscJpC-53">
          <mxGeometry x="829.0557939914163" y="230.76923076923075" width="13.170815450643776" height="30.576923076923073" as="geometry" />
        </mxCell>
        <mxCell id="eUgnzbrfR_kHX7VscJpC-36" value="1" style="ellipse;whiteSpace=wrap;html=1;aspect=fixed;fillColor=#d80073;fontColor=#ffffff;strokeColor=#A50040;" vertex="1" parent="eUgnzbrfR_kHX7VscJpC-53">
          <mxGeometry x="863.1587982832618" y="130.3846153846154" width="23.076923076923073" height="23.076923076923073" as="geometry" />
        </mxCell>
        <mxCell id="eUgnzbrfR_kHX7VscJpC-38" value="2" style="ellipse;whiteSpace=wrap;html=1;aspect=fixed;fillColor=#d80073;fontColor=#ffffff;strokeColor=#A50040;" vertex="1" parent="eUgnzbrfR_kHX7VscJpC-53">
          <mxGeometry x="863.1587982832618" y="342.1153846153846" width="23.076923076923073" height="23.076923076923073" as="geometry" />
        </mxCell>
        <mxCell id="eUgnzbrfR_kHX7VscJpC-40" value="3" style="ellipse;whiteSpace=wrap;html=1;aspect=fixed;fillColor=#d80073;fontColor=#ffffff;strokeColor=#A50040;" vertex="1" parent="eUgnzbrfR_kHX7VscJpC-53">
          <mxGeometry x="511.5450643776824" y="219.2307692307692" width="23.076923076923073" height="23.076923076923073" as="geometry" />
        </mxCell>
        <mxCell id="eUgnzbrfR_kHX7VscJpC-47" value="" style="endArrow=classic;html=1;rounded=0;entryX=0.5;entryY=1;entryDx=0;entryDy=0;" edge="1" parent="eUgnzbrfR_kHX7VscJpC-53" target="eUgnzbrfR_kHX7VscJpC-14">
          <mxGeometry width="50" height="50" relative="1" as="geometry">
            <mxPoint x="605.6223175965665" y="1050" as="sourcePoint" />
            <mxPoint x="605.6223175965665" y="726.9230769230769" as="targetPoint" />
          </mxGeometry>
        </mxCell>
        <mxCell id="eUgnzbrfR_kHX7VscJpC-51" value="4" style="ellipse;whiteSpace=wrap;html=1;aspect=fixed;fillColor=#d80073;fontColor=#ffffff;strokeColor=#A50040;" vertex="1" parent="eUgnzbrfR_kHX7VscJpC-53">
          <mxGeometry x="183.45064377682402" y="623.076923076923" width="23.076923076923073" height="23.076923076923073" as="geometry" />
        </mxCell>
        <mxCell id="eUgnzbrfR_kHX7VscJpC-14" value="" style="rounded=1;whiteSpace=wrap;html=1;fillColor=#f5f5f5;fontColor=#333333;strokeColor=#666666;" vertex="1" parent="eUgnzbrfR_kHX7VscJpC-53">
          <mxGeometry x="382.18884120171674" y="553.8461538461538" width="446.86695278969955" height="311.5384615384615" as="geometry" />
        </mxCell>
        <mxCell id="eUgnzbrfR_kHX7VscJpC-15" value="Mongod" style="shape=cylinder3;whiteSpace=wrap;html=1;boundedLbl=1;backgroundOutline=1;size=15;fillColor=#e1d5e7;strokeColor=#9673a6;" vertex="1" parent="eUgnzbrfR_kHX7VscJpC-53">
          <mxGeometry x="517.4248927038627" y="565.3846153846154" width="176.39484978540773" height="88.26923076923076" as="geometry" />
        </mxCell>
        <mxCell id="eUgnzbrfR_kHX7VscJpC-16" value="SHARD0" style="text;html=1;align=center;verticalAlign=middle;whiteSpace=wrap;rounded=0;" vertex="1" parent="eUgnzbrfR_kHX7VscJpC-53">
          <mxGeometry x="570.343347639485" y="519.2307692307692" width="70.55793991416309" height="34.61538461538461" as="geometry" />
        </mxCell>
        <mxCell id="eUgnzbrfR_kHX7VscJpC-34" value="" style="dashed=0;outlineConnect=0;html=1;align=center;labelPosition=center;verticalLabelPosition=bottom;verticalAlign=top;shape=mxgraph.weblogos.mongodb" vertex="1" parent="eUgnzbrfR_kHX7VscJpC-53">
          <mxGeometry x="559.5244635193133" y="608.076923076923" width="13.170815450643776" height="30.576923076923073" as="geometry" />
        </mxCell>
      </root>
    </mxGraphModel>
  </diagram>
</mxfile>
